<svg width="341" height="116" viewBox="0 0 341 116" fill="none" xmlns="http://www.w3.org/2000/svg">
<g clip-path="url(#clip0)">
<path d="M47.3107 115.917C21.3543 115.917 0.241592 95.4158 0.241592 70.2152C0.241592 45.0147 21.3574 24.5135 47.3107 24.5135H47.3223C51.6943 17.1817 57.8951 11.1135 65.3167 6.90435C72.7384 2.69525 81.1255 0.489815 89.6556 0.504467C113.26 0.504467 133.718 17.5819 138.126 40.5759C149.427 48.2808 156.112 60.8645 156.112 74.6614C156.112 97.4106 137.624 115.917 114.898 115.917C114.898 115.917 83.4122 119.097 83.9502 85.7256H79.1811C79.1811 85.7256 82.5372 116.247 47.9236 115.999L47.3107 115.917Z" fill="#F3F2F2"/>
<path d="M90.3679 79.153C89.5769 80.5448 87.7698 83.2338 87.6807 83.3241C87.4647 83.5403 87.2084 83.7114 86.9263 83.8281C86.6441 83.9447 86.3416 84.0045 86.0363 84.0039L77.1128 84.0112C76.7406 84.0079 76.3742 83.9164 76.0441 83.7442C75.714 83.572 75.4294 83.3237 75.2135 83.0201C74.3924 81.8503 73.5784 80.5448 72.7812 79.1562C70.1511 79.8287 62.483 80.5158 62.483 80.5158C62.483 80.5158 63.2564 68.8183 67.109 64.4574C66.2309 60.1837 66.0194 55.775 66.9018 51.5883C68.5793 43.6593 74.0253 37.6982 79.9349 31.7793C80.371 31.3434 80.9623 31.0985 81.5788 31.0985C82.195 31.0985 82.7863 31.3434 83.2225 31.7793C88.8936 37.4553 94.5762 43.6709 96.2442 51.6019C97.1329 55.7791 96.9245 60.1877 96.0443 64.471C99.899 68.8297 100.673 80.525 100.673 80.525C100.673 80.525 92.9983 79.8287 90.3679 79.153Z" fill="#2C3237"/>
<path d="M85.7147 54.3489C85.7147 53.5485 85.4775 52.766 85.0331 52.1003C84.5889 51.4346 83.9573 50.916 83.2185 50.6095C82.4797 50.3032 81.6668 50.2231 80.8823 50.3792C80.098 50.5354 79.3777 50.9209 78.812 51.4868C78.2466 52.053 77.8614 52.7742 77.7054 53.5594C77.5494 54.3444 77.6297 55.1582 77.9357 55.898C78.2417 56.6375 78.7599 57.2697 79.4249 57.7142C80.0898 58.1591 80.8716 58.3964 81.6713 58.3964C82.7435 58.3964 83.7721 57.9701 84.5303 57.211C85.2886 56.4519 85.7147 55.4224 85.7147 54.3489Z" fill="#F3F2F2"/>
<path d="M212.147 85.9685C212.008 86.176 211.805 86.4566 211.536 86.8102C211.267 87.1637 210.63 87.7926 209.625 88.6969C208.625 89.5966 207.542 90.3995 206.389 91.0943C205.235 91.791 203.714 92.4112 201.828 92.955C199.932 93.5013 197.968 93.7764 195.995 93.7719C190.153 93.7719 185.304 91.7402 181.449 87.6768C177.594 83.6132 175.667 78.3352 175.667 71.8426V42.6204H182.953V71.8426C182.953 76.2285 184.311 79.849 187.028 82.7044C189.745 85.5598 193.074 86.9879 197.014 86.9886C201.26 86.9886 204.843 85.4246 207.763 82.2966C210.683 79.1687 212.144 75.1736 212.145 70.3118V42.6204H219.484V92.7476H212.148L212.147 85.9685Z" fill="#F3F2F2"/>
<path d="M243.987 114.68H236.703V42.6206H243.987V50.4738C244.125 50.2704 244.372 49.9559 244.727 49.5305C245.081 49.1048 245.812 48.3825 246.917 47.3635C248.025 46.3409 249.226 45.4272 250.508 44.635C251.798 43.836 253.454 43.1219 255.476 42.493C257.497 41.8642 259.601 41.5461 261.716 41.5497C268.102 41.5497 273.698 44.1164 278.503 49.2503C283.309 54.3839 285.713 60.5293 285.713 67.6862C285.713 74.843 283.32 80.9796 278.53 86.0961C273.741 91.2126 268.135 93.7726 261.716 93.7762C259.619 93.7822 257.533 93.4726 255.527 92.8576C253.541 92.2452 251.868 91.5144 250.508 90.6647C249.264 89.8982 248.081 89.0374 246.969 88.0897C245.966 87.2222 245.21 86.4827 244.7 85.871L243.987 84.9017V114.68ZM249.465 81.1998C253.116 85.0583 257.201 86.9877 261.716 86.9877C266.031 86.9877 269.894 85.1092 273.308 81.3524C276.72 77.5953 278.428 73.0396 278.428 67.6851C278.428 62.3299 276.72 57.7738 273.308 54.017C269.894 50.2601 266.031 48.3823 261.716 48.3836C257.199 48.3836 253.116 50.313 249.465 54.1716C245.814 58.0301 243.989 62.5352 243.987 67.6862C243.987 72.8373 245.814 77.3421 249.465 81.2007V81.1998Z" fill="#F3F2F2"/>
<path d="M320.663 49.4006H308.636V92.7518H301.35V49.4006H293.51V42.6206H301.355V33.2365C301.355 28.5788 302.552 24.9748 304.945 22.4244C307.341 19.8742 310.66 18.5994 314.906 18.6001C316.158 18.5994 317.404 18.7362 318.625 19.0079C319.847 19.2798 320.765 19.5517 321.376 19.8237L322.192 20.1807V26.964C320.119 25.9095 317.859 25.3826 315.416 25.3833C310.898 25.3833 308.641 28.0011 308.641 33.2365V42.6206H320.667L320.663 49.4006Z" fill="#48B3E0"/>
<path d="M332.406 22.5522C333.304 21.6527 334.416 21.2029 335.742 21.2029C337.068 21.2029 338.181 21.6527 339.079 22.5522C339.977 23.4516 340.427 24.5652 340.427 25.8928C340.427 27.2205 339.977 28.3341 339.079 29.2336C338.181 30.133 337.068 30.5827 335.742 30.5827C334.416 30.5827 333.304 30.133 332.406 29.2336C331.505 28.3341 331.057 27.2205 331.057 25.8928C331.057 24.5652 331.505 23.4516 332.406 22.5522ZM332.125 42.6206H339.411V92.7476H332.125V42.6206Z" fill="#48B3E0"/>
</g>
<defs>
<clipPath id="clip0">
<rect width="341" height="116" fill="white"/>
</clipPath>
</defs>
</svg>
